# xmcd
#
# Track frame offsets:
# 150
# 25707
# 47312
# 78052
# 106550
# 127030
# 143850
# 159790
# 185570
# 214135
# 234667
# 250282
# 261747
# 283700
# 304537
# 316447
# 322565
#
# Disc length: 4315 seconds
#
#
# Revision: 0
# Processed by: cddbd v1.5.2PL0 Copyright (c) Steve Scherf et al.
# Submitted via: FreeRIP 2.944 
#
DISCID=dc10d911
DTITLE=McMurtry-L-Berry4 - Folly-Glory7
DYEAR=2004
DGENRE=Booty Bass
TTITLE0=FG 701
TTITLE1=FG 702
TTITLE2=FG 703
TTITLE3=FG 704
TTITLE4=FG 705
TTITLE5=FG 706
TTITLE6=FG 707
TTITLE7=FG 708
TTITLE8=FG 709
TTITLE9=FG 710
TTITLE10=FG 711
TTITLE11=FG 712
TTITLE12=FG 713
TTITLE13=FG 714
TTITLE14=FG 715
TTITLE15=FG 716
TTITLE16=FG 717
EXTD=Folly and Glory by Larry McMurtry 7 CDs 2004\n4th Berrybender Narrative Simon and Schuster\nread by Alfred Molina - Booty - country
EXTT0=
EXTT1=
EXTT2=
EXTT3=
EXTT4=
EXTT5=
EXTT6=
EXTT7=
EXTT8=
EXTT9=
EXTT10=
EXTT11=
EXTT12=
EXTT13=
EXTT14=
EXTT15=
EXTT16=
PLAYORDER=
